<?xml version="1.0" encoding="iso-8859-1"?>
<!-- Generator: Adobe Illustrator 16.0.0, SVG Export Plug-In . SVG Version: 6.00 Build 0)  -->
<!DOCTYPE svg PUBLIC "-//W3C//DTD SVG 1.1//EN" "http://www.w3.org/Graphics/SVG/1.1/DTD/svg11.dtd">
<svg version="1.1" id="Layer_1" xmlns="http://www.w3.org/2000/svg" xmlns:xlink="http://www.w3.org/1999/xlink" x="0px" y="0px"
	 width="32px" height="32px" viewBox="0 0 32 32" style="enable-background:new 0 0 32 32;" xml:space="preserve">
<g id="Button_22_">
	<g>
		<path style="fill:#88C057;" d="M30,0H2C0.896,0,0,0.896,0,2v28c0,1.104,0.896,2,2,2h28c1.105,0,2-0.896,2-2V2
			C32,0.896,31.105,0,30,0z"/>
	</g>
</g>
<g id="Arrow_9_">
	<g>
		<path style="fill-rule:evenodd;clip-rule:evenodd;fill:#FFFFFF;" d="M20.707,14.292l-4-4C16.526,10.111,16.276,10,16,10
			c-0.276,0-0.526,0.111-0.707,0.292l-4,4C11.112,14.474,11,14.724,11,15c0,0.552,0.448,0.999,1,0.999
			c0.276,0,0.526-0.111,0.707-0.292l2.302-2.302V21c0,0.552,0.443,0.999,0.991,0.999s0.991-0.447,0.991-0.999v-7.595l2.302,2.302
			c0.181,0.181,0.431,0.292,0.707,0.292c0.552,0,1-0.447,1-0.999C21,14.724,20.888,14.474,20.707,14.292z"/>
	</g>
</g>
<g>
</g>
<g>
</g>
<g>
</g>
<g>
</g>
<g>
</g>
<g>
</g>
<g>
</g>
<g>
</g>
<g>
</g>
<g>
</g>
<g>
</g>
<g>
</g>
<g>
</g>
<g>
</g>
<g>
</g>
</svg>
